<?xml version="1.0" encoding="UTF-8"?>
<svg width="18px" height="18px" viewBox="0 0 18 18" version="1.1" xmlns="http://www.w3.org/2000/svg">
    <circle cx="9" cy="9" r="9" fill="#39ae00"></circle>
    <path d="M12.0372015,14 C11.6211349,14 11.1186259,13.8957316 10.5660006,13.6871948 C9.35446293,13.2304318 8.03630189,12.3276692 6.85436315,11.1457363 C5.67208806,9.96346699 4.76932096,8.64497608 4.31221944,7.43344438 C3.89682549,6.33189904 3.89581644,5.42779099 4.30986498,5.01408083 C4.36939918,4.95454693 4.42994243,4.89064048 4.49250378,4.82471593 C4.87022638,4.42748691 5.29705627,3.98047813 5.86279929,4.00065912 C6.25263054,4.0168039 6.63035313,4.2589757 7.01715722,4.74029215 C8.16007919,6.16170608 7.64478888,6.66824876 7.04843789,7.25551538 L6.94315991,7.35978379 C6.84561801,7.45732521 6.66129746,7.90904289 8.37601678,9.62375377 C8.93570547,10.1834397 9.41298807,10.5931137 9.79441053,10.8410034 C10.0345654,10.9970697 10.4640861,11.2331872 10.6403342,11.0569399 L10.7462849,10.9499807 C11.3328817,10.3549781 11.8394269,9.84137204 13.2598388,10.9832793 C13.7411576,11.3700815 13.9829942,11.7474659 13.9991391,12.1379679 C14.0223473,12.7033718 13.5719728,13.1312087 13.1744055,13.5085931 C13.108817,13.5711541 13.0449102,13.6316971 12.985376,13.6908946 C12.7798654,13.8967406 12.4512501,14 12.0372015,14 Z" fill="#FFFFFF"></path>
</svg>