<?xml version="1.0" encoding="UTF-8"?>
<svg width="18px" height="18px" viewBox="0 0 18 18" version="1.1" xmlns="http://www.w3.org/2000/svg">
    <circle cx="9" cy="9" r="9" fill="#39ae00"></circle>
    <g fill="#fff">
        <path d="M13.1036842,12.8544828 C13.3283848,12.8544828 13.5230853,12.7802904 13.6886025,12.6337931 L10.8564973,9.80157895 C10.7885481,9.85023593 10.722686,9.89754991 10.6604719,9.94254083 C10.4485299,10.0986933 10.2765154,10.2205445 10.1444283,10.3078584 C10.0123593,10.3953721 9.83664247,10.4845735 9.61729583,10.5756443 C9.39780399,10.666824 9.19332123,10.7122686 9.00362976,10.7122686 L8.99807623,10.7122686 L8.99252269,10.7122686 C8.80281307,10.7122686 8.59833031,10.6668421 8.37885662,10.5756443 C8.15938294,10.4845735 7.98366606,10.3953721 7.85172414,10.3078584 C7.71965517,10.2205445 7.5477314,10.0987114 7.33568058,9.94254083 C7.27658802,9.8992196 7.21105263,9.85168784 7.14019964,9.8008167 L4.30754991,12.6337931 C4.473049,12.7802904 4.66787659,12.8544828 4.89255898,12.8544828 L13.1036842,12.8544828 Z"></path>
        <path d="M4.56346642,8.01813067 C4.35154265,7.87684211 4.16361162,7.71502722 4,7.53275862 L4,11.8417423 L6.4962069,9.34553539 C5.99682396,8.99689655 5.35339383,8.55493648 4.56346642,8.01813067 Z"></path>
        <path d="M13.4384574,8.01813067 C12.678657,8.53239564 12.0328857,8.97511797 11.5010708,9.34653358 L13.9962795,11.8418512 L13.9962795,7.53275862 C13.8362976,7.71136116 13.6503811,7.87306715 13.4384574,8.01813067 Z"></path>
        <path d="M13.1036842,5.00023593 L4.89257713,5.00023593 C4.60611615,5.00023593 4.38588022,5.09696915 4.2315971,5.29023593 C4.07718693,5.48359347 4.00010889,5.72540835 4.00010889,6.01540835 C4.00010889,6.24965517 4.10239564,6.50346642 4.3068784,6.7769147 C4.51136116,7.05025408 4.72894737,7.26495463 4.95952813,7.42112523 C5.08593466,7.51043557 5.46713249,7.77544465 6.1031216,8.21606171 C6.44644283,8.45397459 6.74500907,8.66134301 7.00157895,8.84029038 C7.22027223,8.99266788 7.40887477,9.12462795 7.56459165,9.23413793 C7.58246824,9.24667877 7.61058076,9.26678766 7.64789474,9.29346642 C7.68809437,9.3223412 7.73896552,9.35898367 7.80172414,9.40430127 C7.92257713,9.49170599 8.02297641,9.56235935 8.10294011,9.61633394 C8.18279492,9.67032668 8.27954628,9.73063521 8.393049,9.79760436 C8.50646098,9.86448276 8.61343013,9.91477314 8.7138294,9.94822142 C8.81424682,9.98165154 8.90720508,9.99842105 8.99272232,9.99842105 L8.99827586,9.99842105 L9.0038294,9.99842105 C9.08932849,9.99842105 9.1823049,9.98165154 9.28274047,9.94822142 C9.3831216,9.91477314 9.49,9.86459165 9.60350272,9.79760436 C9.71689655,9.73063521 9.81352087,9.67019964 9.89362976,9.61633394 C9.97359347,9.56235935 10.0739927,9.49172414 10.1948639,9.40430127 C10.2574955,9.35898367 10.3083666,9.32232305 10.3485662,9.29355717 C10.3858984,9.26676951 10.4139927,9.24678766 10.4319782,9.23413793 C10.5532849,9.14972777 10.742323,9.01831216 10.9964791,8.84183303 C11.4589474,8.52050817 12.1400363,8.04756806 13.0426134,7.42112523 C13.3140653,7.2315245 13.540853,7.00272232 13.7231216,6.73504537 C13.9050635,6.46736842 13.9962795,6.18658802 13.9962795,5.89279492 C13.9962795,5.64733212 13.9078403,5.43729583 13.731343,5.26235935 C13.5546461,5.08764065 13.3454083,5.00023593 13.1036842,5.00023593 Z"></path>
    </g>
</svg>